<svg xmlns="http://www.w3.org/2000/svg">
  <defs>
    <font id="icomoon" horiz-adv-x="1024">
      <font-face units-per-em="1024" ascent="960" descent="-64"/>
      <glyph horiz-adv-x="512"/>
      <glyph unicode="" glyph-name="client-5" d="M233.261 533.95h-.028c-23.166 0-41.945-16.689-41.945-37.276v-.024c0-20.587 18.78-37.276 41.945-37.276h.028c23.166 0 41.945 16.689 41.945 37.276v.024c0 20.587-18.78 37.276-41.945 37.276zm309.604 11.916c-.066 28.595-12.874 56.002-35.624 76.223s-53.586 31.612-85.762 31.677c-32.185-.052-63.036-11.436-85.797-31.659s-35.578-47.637-35.644-76.241V388.182s242.799 24.032 242.826 157.66v.024zM106.264 336.427c.058-19.897 8.975-38.963 24.804-53.035s37.28-22.002 59.668-22.061c22.383.059 43.831 7.987 59.658 22.053s24.749 33.126 24.815 53.019v109.72s-168.945-16.735-168.945-109.696zm84.472-19.657c-4.375 0-8.652 1.152-12.29 3.313s-6.472 5.23-8.147 8.823c-1.674 3.592-2.113 7.545-1.259 11.358s2.96 7.317 6.053 10.066c3.094 2.749 7.036 4.622 11.327 5.38s8.738.369 12.781-1.119c4.042-1.488 7.496-4.008 9.927-7.24s3.728-7.034 3.728-10.922c.011-2.587-.554-5.152-1.66-7.546s-2.735-4.569-4.79-6.402c-2.056-1.834-4.498-3.288-7.187-4.281s-5.572-1.504-8.484-1.504v.074zm170.733 10.826h-16.302v-16.84h-8.491v41.207h26.83v-6.877h-18.339v-10.642h16.302v-6.848zm40.811 2.829c0-4.056-.717-7.613-2.151-10.67s-3.49-5.415-6.17-7.075c-2.66-1.661-5.717-2.49-9.17-2.49-3.415 0-6.462.821-9.142 2.462s-4.755 3.981-6.226 7.018c-1.471 3.057-2.217 6.566-2.235 10.529v2.037c0 4.056.726 7.623 2.178 10.698 1.472 3.095 3.539 5.463 6.198 7.104 2.68 1.661 5.736 2.49 9.171 2.49s6.481-.83 9.142-2.49c2.679-1.641 4.745-4.009 6.198-7.104 1.471-3.075 2.207-6.632 2.207-10.669v-1.84zm-8.604 1.869c0 4.32-.773 7.604-2.32 9.849s-3.755 3.368-6.622 3.368c-2.85 0-5.048-1.113-6.595-3.34-1.547-2.207-2.33-5.452-2.348-9.736v-2.009c0-4.207.774-7.471 2.32-9.792s3.773-3.482 6.679-3.482c2.849 0 5.038 1.113 6.566 3.34 1.528 2.245 2.302 5.509 2.32 9.793v2.009zm36.142-10.727c0 1.604-.566 2.83-1.698 3.68-1.132.868-3.17 1.774-6.113 2.716-2.944.963-5.274 1.906-6.991 2.83-4.679 2.528-7.018 5.934-7.018 10.217 0 2.227.622 4.208 1.867 5.944 1.265 1.754 3.066 3.122 5.406 4.104 2.358.981 5 1.471 7.924 1.471 2.944 0 5.566-.538 7.868-1.613 2.301-1.057 4.084-2.556 5.349-4.5 1.283-1.944 1.924-4.151 1.924-6.622h-8.491c0 1.887-.594 3.348-1.783 4.387-1.188 1.056-2.859 1.584-5.009 1.584-2.076 0-3.689-.443-4.84-1.33-1.152-.868-1.726-2.019-1.726-3.453 0-1.34.669-2.462 2.009-3.368 1.358-.906 3.349-1.755 5.971-2.547 4.83-1.453 8.349-3.255 10.557-5.406s3.312-4.83 3.312-8.037c0-3.566-1.35-6.368-4.048-8.405-2.697-2.019-6.329-3.029-10.896-3.029-3.17 0-6.056.576-8.661 1.726-2.603 1.17-4.594 2.764-5.971 4.783-1.359 2.019-2.038 4.359-2.038 7.019h8.519c0-4.547 2.716-6.821 8.15-6.821 2.019 0 3.595.406 4.727 1.217 1.132.83 1.698 1.981 1.698 3.453zm45.311 23.519h-12.623v-34.33h-8.491v34.33h-12.452v6.877h33.566v-6.877zm29.66-16.472h-16.302v-11.038h19.132v-6.82h-27.623v41.207h27.566v-6.877h-19.075v-9.821h16.302v-6.651zm23.067-2.773h-6.764v-15.085h-8.491v41.207h15.312c4.868 0 8.622-1.085 11.264-3.255s3.962-5.236 3.962-9.198c0-2.812-.612-5.161-1.839-7.047-1.208-1.868-3.047-3.359-5.519-4.472l8.916-16.84v-.396h-9.114l-7.726 15.085zm-6.765 6.877h6.849c2.132 0 3.783.538 4.953 1.613 1.17 1.095 1.754 2.595 1.754 4.5 0 1.944-.556 3.472-1.669 4.586-1.095 1.113-2.783 1.669-5.066 1.669h-6.821v-12.368zm51.453-7.443v-14.519h-8.491v41.207h16.075c3.094 0 5.812-.566 8.151-1.698 2.358-1.132 4.169-2.745 5.434-4.839 1.264-2.076 1.896-4.444 1.896-7.104 0-4.038-1.387-7.226-4.161-9.566-2.755-2.321-6.576-3.482-11.462-3.482h-7.443zm0 6.877h7.584c2.246 0 3.953.528 5.123 1.585 1.188 1.057 1.783 2.566 1.783 4.528 0 2.019-.595 3.652-1.783 4.897s-2.83 1.887-4.925 1.924h-7.782v-12.934zm53.717-3.538h-16.302v-11.038h19.132v-6.82h-27.623v41.207h27.566v-6.877h-19.075v-9.821h16.302v-6.651zm39.396 16.472h-12.622v-34.33h-8.491v34.33h-12.453v6.877h33.566v-6.877zm29.661-16.472h-16.302v-11.038h19.131v-6.82h-27.622v41.207h27.566v-6.877h-19.075v-9.821h16.302v-6.651zm23.066-2.773h-6.764v-15.085h-8.491v41.207h15.311c4.868 0 8.623-1.085 11.264-3.255s3.963-5.236 3.963-9.198c0-2.812-.613-5.161-1.839-7.047-1.208-1.868-3.048-3.359-5.519-4.472l8.915-16.84v-.396h-9.113l-7.726 15.085zm-6.764 6.877h6.848c2.132 0 3.783.538 4.953 1.613 1.17 1.095 1.755 2.595 1.755 4.5 0 1.944-.556 3.472-1.67 4.586-1.095 1.113-2.783 1.669-5.066 1.669h-6.82v-12.368zm49.896-11.151c0 1.604-.566 2.83-1.698 3.68-1.132.868-3.17 1.774-6.113 2.716-2.944.963-5.274 1.906-6.99 2.83-4.679 2.528-7.019 5.934-7.019 10.217 0 2.227.623 4.208 1.868 5.944 1.264 1.754 3.065 3.122 5.405 4.104 2.359.981 5 1.471 7.924 1.471 2.944 0 5.566-.538 7.868-1.613 2.302-1.057 4.085-2.556 5.349-4.5 1.283-1.944 1.924-4.151 1.924-6.622h-8.491c0 1.887-.594 3.348-1.782 4.387-1.189 1.056-2.859 1.584-5.01 1.584-2.075 0-3.688-.443-4.84-1.33-1.151-.868-1.726-2.019-1.726-3.453 0-1.34.669-2.462 2.009-3.368 1.358-.906 3.349-1.755 5.972-2.547 4.83-1.453 8.348-3.255 10.557-5.406s3.311-4.83 3.311-8.037c0-3.566-1.349-6.368-4.047-8.405-2.698-2.019-6.33-3.029-10.896-3.029-3.171 0-6.057.576-8.661 1.726-2.604 1.17-4.594 2.764-5.972 4.783-1.358 2.019-2.037 4.359-2.037 7.019h8.519c0-4.547 2.717-6.821 8.151-6.821 2.018 0 3.594.406 4.726 1.217 1.132.83 1.698 1.981 1.698 3.453z"/>
      <glyph unicode="" glyph-name="client-6" d="M516.106 473.038c-4.281 5.698-6.329 12.432-5.842 19.211v27.853c0 8.538 1.936 15.027 5.809 19.466s10.524 6.649 19.954 6.63c8.861 0 15.151-1.889 18.871-5.667 4.057-4.821 6.031-10.715 5.579-16.66v-6.546h-15.851v6.631c.056 2.17-.098 4.34-.46 6.488-.228 1.469-1.026 2.828-2.264 3.854-1.628 1.106-3.678 1.642-5.743 1.502-2.172.14-4.326-.426-6.039-1.587-1.38-1.137-2.301-2.627-2.626-4.25a32.158 32.158 0 0 1-.623-6.886v-33.803c-.25-3.261.449-6.525 2.034-9.492.788-1.004 1.883-1.8 3.164-2.3s2.695-.685 4.089-.533c2.031-.144 4.046.406 5.612 1.53 1.292 1.107 2.122 2.551 2.363 4.109.37 2.242.535 4.507.493 6.772v6.857h15.851v-6.262c.445-6.198-1.48-12.35-5.48-17.51-3.643-4.138-9.846-6.206-18.969-6.206s-16.016 2.21-19.921 6.801zm65.998-.284c-4.004 4.336-6.006 10.654-6.006 19.013v29.298c0 8.273 2.002 14.535 6.006 18.786s10.699 6.366 20.084 6.347c9.32 0 15.983-2.116 19.986-6.347 4.004-4.251 6.039-10.512 6.039-18.786v-29.298c0-8.273-2.034-14.62-6.104-18.984s-10.698-6.546-19.921-6.546c-9.222 0-16.048 2.21-20.084 6.517zm27.469 7.027c1.434 2.716 2.087 5.69 1.904 8.67v35.872c.184 2.922-.459 5.84-1.871 8.5-.804 1.025-1.926 1.835-3.237 2.336s-2.76.673-4.18.498c-1.424.171-2.875-.003-4.191-.503s-2.444-1.307-3.258-2.33c-1.443-2.653-2.097-5.574-1.903-8.5v-36.042c-.2-2.981.454-5.959 1.903-8.67.924-.914 2.064-1.646 3.343-2.148s2.668-.761 4.074-.761c1.405 0 2.794.26 4.073.761s2.42 1.235 3.343 2.148v.17zm37.706 65.561h17.066l12.832-54.056 13.127 54.056h16.606l1.674-78.024H696.31l-1.313 54.226-12.668-54.226h-9.846l-13.127 54.425-1.214-54.425h-12.405l1.542 78.024zm80.439 0H754.3c15.316 0 22.972-7.384 22.972-22.155 0-14.147-8.062-21.21-24.187-21.191h-9.058v-34.678h-16.409l.099 78.024zm22.711-33.346c1.621-.178 3.267-.049 4.825.377s2.991 1.138 4.199 2.088c1.882 2.635 2.712 5.731 2.363 8.811a24.415 24.415 0 0 1-.788 7.083c-.234.776-.644 1.503-1.208 2.141s-1.268 1.171-2.074 1.571a16.98 16.98 0 0 1-7.318 1.246h-6.367v-23.316h6.367zm50.507 33.346h17.623l18.082-78.024h-15.292l-3.577 17.991h-15.72l-3.676-17.991h-15.522l18.082 78.024zM816 494.346l-6.137 32.751-6.136-32.751h12.274zm35.246 50.996h11.486l21.989-44.508v44.508h13.619v-78.024h-10.929l-22.119 46.464v-46.464h-14.079l.033 78.024zm78.995-48.275-18.28 48.166h15.392l11.159-30.939 10.469 30.939h15.063l-18.05-48.166v-29.749h-15.752v29.749zm-388.799-63.863v-4.081h-13.389v-31.704h-5.613v31.704h-13.455v4.081h32.457zm41.974-35.788h-4.333a1.932 1.932 0 0 0-1.214.34 1.879 1.879 0 0 0-.722.821l-3.873 8.5h-18.575l-3.873-8.5a2.343 2.343 0 0 0-.591-.963 2.008 2.008 0 0 0-1.213-.34h-4.333l16.409 35.783h5.711l16.606-35.641zm-27.174 13.288h15.491l-6.564 14.562a26.002 26.002 0 0 0-1.214 3.371c-.23-.68-.427-1.331-.623-1.898l-.591-1.501-6.499-14.534zm55.464-9.773a34.5 34.5 0 0 1 3.085 0c.888.079 1.766.221 2.626.425.804.171 1.594.388 2.363.652.723.255 1.444.567 2.199.878v8.048h-6.563c-.162-.009-.325.013-.477.062s-.292.124-.409.221c-.108.08-.193.181-.25.294s-.084.235-.078.358v2.748h12.733v-13.715a24.261 24.261 0 0 0-6.925-2.918 29.572 29.572 0 0 0-4.103-.737 49.406 49.406 0 0 0-4.791-.226 25.043 25.043 0 0 0-8.271 1.331c-2.457.853-4.689 2.125-6.563 3.74-1.827 1.632-3.265 3.557-4.233 5.667a17.875 17.875 0 0 0-1.51 7.424 18.552 18.552 0 0 0 1.477 7.481c.944 2.12 2.385 4.051 4.233 5.667 1.873 1.61 4.107 2.873 6.564 3.712a27.562 27.562 0 0 0 8.795 1.332 33.09 33.09 0 0 0 4.562-.312 22.55 22.55 0 0 0 3.906-.907 18.883 18.883 0 0 0 3.282-1.416 23.284 23.284 0 0 0 2.856-1.87l-1.576-2.21c-.124-.202-.307-.372-.532-.491s-.483-.185-.748-.189c-.363.01-.716.108-1.017.283-.493.227-1.017.51-1.608.85-.697.378-1.434.7-2.199.963-.978.339-1.988.605-3.019.794a25.251 25.251 0 0 1-4.168.311 19.418 19.418 0 0 1-6.333-.991c-1.827-.633-3.473-1.6-4.824-2.833-1.36-1.287-2.4-2.802-3.053-4.45a16.738 16.738 0 0 1 0-11.929c.719-1.683 1.836-3.218 3.283-4.506 1.346-1.228 2.979-2.194 4.792-2.833a18.459 18.459 0 0 1 6.498-.709zm52.312.568h17.919v-4.08h-23.399v35.785h5.612l-.131-31.705zm36.56-4.08h-5.613v35.785h5.613v-35.785zm20.873 35.615c.333-.164.624-.386.853-.652l23.99-26.975c-.032.424-.032.85 0 1.275V433.344h4.89v-35.929h-2.822a2.659 2.659 0 0 0-1.214.199 3.188 3.188 0 0 0-.887.68l-23.957 26.947V397.416h-4.693v35.788h2.921c.317-.001.63-.059.919-.17zm71.052.17v-3.939h-19.888v-11.816h16.114v-3.797h-16.114V401.44h19.888v-3.939h-25.664v35.701h25.664zM204.43 654.196l249.19-61.085V379.056l-249.19 61.057v214.083zm-15.982 18.246V429.715l281.123-68.934V603.48l-281.123 68.962zm150.669-424.336L57.962 317.098V559.8l281.155-68.964v-242.73zM193.108 656.944l245.941-60.319-104.592-90.324-245.973 60.348 104.625 90.295zm-4.66 15.498L57.962 559.793l281.155-68.961L469.57 603.481l-281.122 68.961zM354.936 261.76l114.634 98.993-114.634 28.133V261.76z"/>
      <glyph unicode="" glyph-name="client-3" d="M258.482 305.652c2.354-2.668 3.608-6.009 3.542-9.438.12-2.236-.311-4.47-1.262-6.533s-2.395-3.905-4.227-5.389c-4.573-3.162-10.238-4.708-15.956-4.353h-28.051v59.811h27.476c5.424.33 10.804-1.074 15.223-3.973 1.774-1.36 3.179-3.079 4.104-5.02s1.345-4.054 1.225-6.171c.161-3.299-.97-6.543-3.191-9.145-2.132-2.376-5.078-4.024-8.361-4.675 3.721-.622 7.08-2.434 9.478-5.113zm-32.902 9.029h11.743c2.669-.181 5.32.525 7.467 1.987.882.731 1.568 1.639 2.005 2.653s.613 2.105.516 3.191c.083 1.082-.098 2.167-.527 3.178s-1.1 1.92-1.962 2.665c-2.211 1.504-4.944 2.22-7.691 2.016h-11.552v-15.69zm20.361-22.938c.942.75 1.683 1.688 2.165 2.742s.691 2.196.612 3.337c.071 1.153-.147 2.307-.64 3.371s-1.245 2.01-2.201 2.765c-2.298 1.56-5.124 2.326-7.979 2.163H225.58V289.67h12.477c2.808-.149 5.589.583 7.883 2.074zm68.706-11.804-15.286 23.375h-5.744v-23.375h-13.148v59.811h24.891c6.274.401 12.477-1.419 17.329-5.084 3.479-3.246 5.578-7.524 5.917-12.061s-1.102-9.037-4.066-12.688c-3.071-3.221-7.267-5.368-11.872-6.077l16.275-23.901h-14.296zm-21.029 31.528h10.754c7.467 0 11.201 3.019 11.201 9.058.076 1.233-.128 2.467-.601 3.625s-1.203 2.211-2.144 3.096c-2.36 1.797-5.399 2.668-8.457 2.425h-10.882l.128-18.203zm92.896-19.488h-26.2l-4.627-12.039h-13.786l24.062 59.14h14.903l23.965-59.14h-13.785l-4.532 12.039zm-3.511 9.058-9.573 25.245-9.573-25.245h19.147zm93.47-21.098h-13.052l-29.263 40.673v-40.673h-13.02v59.812h13.02l29.263-40.908v40.908h13.052v-59.812zm74.483 14.317c-2.699-4.515-6.811-8.189-11.808-10.548-5.681-2.628-11.987-3.922-18.349-3.769h-23.232v59.812h23.232c6.352.152 12.648-1.112 18.349-3.682 4.996-2.306 9.113-5.942 11.808-10.431 2.687-4.865 4.086-10.239 4.086-15.69s-1.4-10.826-4.086-15.691zm-14.935 1.432c3.725 3.973 5.773 9.037 5.773 14.274s-2.048 10.3-5.773 14.273c-4.503 3.599-10.374 5.426-16.34 5.084h-9.062v-38.716h9.062c5.965-.341 11.837 1.486 16.34 5.084zM394.682 672.442s168.464-58.234 164.89-142.503V387.408s-168.336 58.263-164.826 142.531l-.064 142.503zm314.972-251.666c31.816 20.048 68.618 32.466 107.033 36.115v44.618c-44.264-15.621-81.814-43.944-107.033-80.734zm-19.115-13.441c26.041 48.011 71.186 85.059 126.149 103.524v128.565S576.773 556.47 581.847 436.467V233.539s10.69 3.711 27.508 10.665c0 6.486 0 13.031.766 19.606 4.965 55.711 33.892 107.336 80.418 143.525zm-22.817-75.386a193.728 193.728 0 0 0 8.393 41.55c-28.971-31.252-46.516-70.032-50.165-110.888-.352-3.857-.543-7.714-.639-11.688 13.626 5.99 29.486 13.47 46.145 22.265a192.664 192.664 0 0 0-3.734 58.76zm9.543-.73a184.02 184.02 0 0 1 2.968-53.208c65.548 35.911 139.2 91.398 136.36 158.456v5.844c-46.831-4.797-90.646-23.542-124.713-53.354-7.976-18.475-12.901-37.933-14.615-57.737z"/>
      <glyph unicode="" glyph-name="client-4" d="M351.698 263.473c.154-.004.305-.034.445-.089s.267-.134.371-.232l2.108-2.014c-1.636-1.63-3.657-2.934-5.927-3.823a23.11 23.11 0 0 0-8.402-1.373 22.355 22.355 0 0 0-7.902 1.282c-2.26.821-4.289 2.054-5.953 3.616-1.697 1.62-3.004 3.519-3.845 5.585a18.601 18.601 0 0 0-1.344 7.164 17.359 17.359 0 0 0 1.449 7.186c.92 2.079 2.308 3.977 4.082 5.585 1.799 1.576 3.95 2.815 6.321 3.639a24.792 24.792 0 0 0 8.139 1.282 21.927 21.927 0 0 0 7.559-1.167 20.363 20.363 0 0 0 5.663-3.228l-1.765-2.151a1.713 1.713 0 0 0-.447-.389 1.203 1.203 0 0 0-.711-.16 1.716 1.716 0 0 0-.764.229l-.949.573-1.317.732a15.01 15.01 0 0 1-1.765.709c-.781.243-1.582.435-2.397.572a18.344 18.344 0 0 1-3.134.229 16.99 16.99 0 0 1-5.847-.961c-1.73-.608-3.293-1.528-4.583-2.7-1.314-1.247-2.325-2.711-2.976-4.304a14.48 14.48 0 0 1-1.08-5.675 14.77 14.77 0 0 1 1.08-5.768c.642-1.579 1.636-3.033 2.923-4.28 1.207-1.162 2.702-2.07 4.372-2.656 1.72-.619 3.565-.93 5.426-.915a22.834 22.834 0 0 1 3.213.183c1.737.185 3.403.709 4.873 1.534.737.422 1.434.896 2.081 1.419.27.224.627.355 1.001.366zm60.842 10.12a17.471 17.471 0 0 0-1.422-7.118c-.859-2.064-2.21-3.948-3.968-5.526s-3.879-2.815-6.225-3.628a25.65 25.65 0 0 0-16.014 0c-2.332.826-4.44 2.065-6.189 3.639-1.756 1.607-3.118 3.506-4.004 5.584-1.897 4.61-1.897 9.649 0 14.258.899 2.08 2.26 3.985 4.004 5.608 1.764 1.523 3.871 2.716 6.189 3.501a25.217 25.217 0 0 0 16.014 0c2.34-.826 4.456-2.064 6.215-3.639 1.734-1.59 3.086-3.465 3.977-5.515a17.582 17.582 0 0 0 1.422-7.163zm-5.531 0a15.123 15.123 0 0 1-1.001 5.722c-.59 1.579-1.55 3.036-2.819 4.28-1.235 1.176-2.755 2.098-4.451 2.7a18.526 18.526 0 0 1-11.642 0c-1.696-.602-3.217-1.524-4.452-2.7-1.286-1.236-2.256-2.694-2.844-4.28a16.78 16.78 0 0 1 0-11.444c.594-1.583 1.563-3.041 2.844-4.28 1.237-1.169 2.757-2.084 4.452-2.678a18.988 18.988 0 0 1 11.642 0c1.693.594 3.214 1.509 4.451 2.678 1.264 1.246 2.222 2.702 2.819 4.28a15.023 15.023 0 0 1 1.001 5.722zm47.041-5.998.553-1.282c.211.458.395.87.606 1.282.201.43.43.85.685 1.259l13.459 21.259c.264.366.5.594.764.664.358.095.732.133 1.106.114h3.977v-34.576h-4.714V282.813a9.087 9.087 0 0 0 0 1.19l-13.538-21.556c-.172-.323-.447-.596-.793-.786s-.747-.291-1.156-.289h-.764c-.41-.005-.812.094-1.159.285s-.62.466-.789.79l-13.933 21.693V256.383h-4.557v34.508h3.977c.374.019.748-.019 1.106-.114.327-.141.587-.376.738-.664l13.749-21.282c.27-.393.499-.807.685-1.236zm50.65 1.718v-12.952h-5.268v34.53h11.747a25.144 25.144 0 0 0 6.558-.754 13.043 13.043 0 0 0 4.635-2.151c1.17-.935 2.072-2.094 2.634-3.387.621-1.408.925-2.908.896-4.416a9.894 9.894 0 0 0-.975-4.417c-.634-1.324-1.607-2.507-2.845-3.456a13.461 13.461 0 0 0-4.661-2.288 22.238 22.238 0 0 0-6.348-.801l-6.374.091zm0 3.708h6.374a14.694 14.694 0 0 1 4.082.526 8.921 8.921 0 0 1 2.949 1.488 6.115 6.115 0 0 1 1.791 2.289c.432.923.646 1.91.633 2.906.061.96-.119 1.92-.528 2.813s-1.038 1.698-1.842 2.358c-2.012 1.365-4.539 2.027-7.085 1.854H504.7v-14.233zm70.798-16.706h-4.162c-.417-.014-.827.1-1.158.321a2.15 2.15 0 0 0-.685.801l-3.582 8.353h-17.99l-3.713-8.353a1.908 1.908 0 0 0-.659-.779 1.971 1.971 0 0 0-1.185-.343h-4.162l15.803 34.58h5.478l16.014-34.58zm-26.076 12.839h14.855l-6.269 14.075a22.882 22.882 0 0 0-1.184 3.25l-.607-1.808a16.375 16.375 0 0 0-.579-1.465l-6.216-14.052zm48.833 21.58c.315-.15.585-.361.79-.617l23.047-26.067V290.894h4.714v-34.579h-2.633a2.55 2.55 0 0 0-1.08.206 2.88 2.88 0 0 0-.843.64l-23.02 26.043a9.45 9.45 0 0 0 0-1.19V256.315h-4.714v34.579h2.792c.326.008.649-.046.948-.16zm67.374-20.667v-13.731h-5.268v13.731l-14.565 20.825h4.714c.407.021.808-.084 1.133-.297a3.05 3.05 0 0 0 .711-.779l9.113-13.434c.369-.572.685-1.098.949-1.602s.474-.984.659-1.465l.684 1.488c.256.544.555 1.071.896 1.579l8.982 13.525c.188.27.419.516.685.732.312.237.718.36 1.132.343h4.767l-14.592-20.917zm-214.187 78.855c2.291-.252 4.61-.458 6.954-.641 35.54 13.813 65.604 36.422 86.436 64.998s31.508 61.855 30.693 95.674l-39.166 34.03c7.963-36.007 4.238-73.23-10.759-107.502s-40.673-64.243-74.158-86.559zm-13.985 1.583 1.054-.183c35.781 22.236 63.061 53.288 78.312 89.139s17.771 74.854 7.237 111.964l-55.786 48.468c22.564-39.84 31.646-84.427 26.19-128.575s-25.223-86.043-57.007-120.814zm189.191 118.492c-9.478-37.16-32.497-70.673-65.636-95.564-9.679-7.309-20.119-13.821-31.186-19.451 26.986 6.892 51.79 19.075 72.5 35.612s36.771 36.986 46.947 59.769l-22.625 19.635zm-8.877 5.471-32.212 27.988c-.616-31.909-11.057-63.093-30.238-90.31s-46.401-49.474-78.832-64.457h.158c7.227.002 14.448.377 21.624 1.122 30.308 10.748 57.083 27.848 77.934 49.774s35.131 47.996 41.565 75.883zM442.119 620.332l-38.428 33.434c-34.353-11.534-63.9-31.81-84.77-58.175s-32.094-57.59-32.201-89.589c.128-35.358 13.826-69.669 38.924-97.501s60.163-47.599 99.645-56.167c35.245 37.308 55.88 83.411 58.907 131.605s-11.712 95.975-42.077 136.394zM706.56 479.616c-.139 41.95-19.381 82.147-53.522 111.81s-80.406 46.381-128.689 46.502c-22.312.02-44.433-3.557-65.241-10.549l235.284-204.424c8.056 18.07 12.182 37.282 12.168 56.661z"/>
      <glyph unicode="" glyph-name="client-1" d="M484.116 680.482h-1.32c-2.028.123-4.056.172-6.085.221h-4.398c-3.837 0-7.748-.098-11.633-.295a6.14 6.14 0 0 1-.879 0 273.14 273.14 0 0 1-101.589-25.917l-4.179-2.014V438.585l9.775 3.316c8.577 2.948 17.717 5.601 27.175 8.058a331.638 331.638 0 0 0 78.203 10.391v-28.102a235.754 235.754 0 0 1-10.288-.296h-.807a312.646 312.646 0 0 1-60.167-9.236 305.576 305.576 0 0 1-71.677-27.931v274.323a287.204 287.204 0 0 0 75.196 30.584 287.808 287.808 0 0 0 70.87 9.138h4.13c4.936-.123 9.751-.344 14.272-.688a203.71 203.71 0 0 0 35.313-5.626v-27.661a218.617 218.617 0 0 1-34.213 5.159l-.701.06c-2.384.203-4.771.407-6.997.407zm48.681-28.275c6.133-.467 12.488-.688 18.915-.688a304.005 304.005 0 0 1 74.511 9.556 306.98 306.98 0 0 1 71.653 27.955V419.596a288.049 288.049 0 0 0-75.221-30.584 289.26 289.26 0 0 0-70.87-9.115 216.432 216.432 0 0 0-53.764 6.338v271.178a221.911 221.911 0 0 1 12.781-2.579c7.136-1.204 14.663-2.088 21.995-2.628zm137.122-2.088-9.775-3.292a429.837 429.837 0 0 0-27.176-8.131 331.023 331.023 0 0 0-81.208-10.416c-6.378 0-12.243.172-17.912.541l-7.796.516V409.304l6.696-.589a220.367 220.367 0 0 1 19.062-.811 259.722 259.722 0 0 1 63.955 8.278 268.172 268.172 0 0 1 49.976 17.958l4.179 2.014v213.965zM345.234 301.042a14.365 14.365 0 0 1-10.874 4.398 16.149 16.149 0 0 1-6.28-1.18 14.495 14.495 0 0 1-4.888-3.218 14.128 14.128 0 0 1-3.152-4.913 15.926 15.926 0 0 1-1.124-6.068V253.41a17.288 17.288 0 0 1 1.442-7.517 14.74 14.74 0 0 1 3.665-4.913 12.836 12.836 0 0 1 5.035-2.604c1.781-.5 3.624-.756 5.474-.761 2.041-.02 4.061.416 5.914 1.277a15.444 15.444 0 0 1 4.888 3.391 15.918 15.918 0 0 1 3.2 4.913 14.833 14.833 0 0 1 1.174 5.846v4.102h-9.58v-3.267a8.493 8.493 0 0 0-.562-3.267 5.853 5.853 0 0 0-1.393-2.063 5.831 5.831 0 0 0-2.004-1.056 6.766 6.766 0 0 0-2.004-.344c-.856-.1-1.721.029-2.512.375s-1.474.894-1.985 1.59a8.672 8.672 0 0 0-1.27 4.913v34.171a11.657 11.657 0 0 0 1.173 5.477c.498.774 1.201 1.391 2.031 1.782s1.751.54 2.661.429a5.094 5.094 0 0 0 4.277-2.063 7.786 7.786 0 0 0 1.588-4.913v-3.169h9.483v3.734a17.308 17.308 0 0 1-1.174 6.412 15.09 15.09 0 0 1-3.201 5.159zm56.917.419a17.054 17.054 0 0 1-10.899 4.028 16.747 16.747 0 0 1-5.719-1.032 15.514 15.514 0 0 1-5.058-2.997 15.061 15.061 0 0 1-3.715-5.134 17.118 17.118 0 0 1-1.393-7.099v-35.153c-.066-2.473.41-4.93 1.393-7.198a14.269 14.269 0 0 1 3.715-4.912 14.986 14.986 0 0 1 5.058-3.096 16.795 16.795 0 0 1 5.719-1.032c1.951.004 3.887.354 5.718 1.032a16.018 16.018 0 0 1 5.181 3.096 15.015 15.015 0 0 1 3.617 4.912 16.948 16.948 0 0 1 1.393 7.198v35.153a17.102 17.102 0 0 1-1.393 7.099 15.84 15.84 0 0 1-3.617 5.134zm-4.472-47.387a6.306 6.306 0 0 0-1.906-5.085c-1.266-1.061-2.861-1.642-4.509-1.642s-3.243.582-4.508 1.642c-.676.651-1.198 1.445-1.527 2.325s-.46 1.823-.379 2.76v35.153c-.081.937.048 1.88.379 2.76s.851 1.675 1.527 2.325a7.016 7.016 0 0 0 9.017 0c.675-.65 1.197-1.445 1.527-2.325s.459-1.823.379-2.76v-35.153zm79.228-15.698v66.547h-9.213l-12.097-35.227h-.171l-12.195 35.227h-9.116v-66.547h9.507v40.484h.171l9.311-28.619h4.741l9.384 28.619h.171v-40.484h9.507zm54.009 61.881a13.207 13.207 0 0 1-5.377 3.636 21.102 21.102 0 0 1-6.892 1.032h-14.124v-66.548h9.482v25.99h4.887a17.36 17.36 0 0 1 8.553 1.818 13.818 13.818 0 0 1 5.206 5.085 15.954 15.954 0 0 1 2.175 5.797c.373 2.504.545 5.035.513 7.566a37.892 37.892 0 0 1-.928 9.507 14.176 14.176 0 0 1-3.494 6.117zm-4.888-20.291a8.377 8.377 0 0 0-.88-3.464 5.337 5.337 0 0 0-2.443-2.333 9.721 9.721 0 0 0-4.473-.836h-4.325v22.625h4.887a9.1 9.1 0 0 0 4.277-.835 5.371 5.371 0 0 0 2.224-2.457 9.707 9.707 0 0 0 .831-3.71v-4.422c0-1.548.098-3.144 0-4.569h-.098zm49.805 24.957h-7.772l-14.663-66.547h9.482l2.786 14.297h12.928l2.786-14.297h9.483l-15.03 66.547zm-8.75-43.186 4.668 24.123h.171l4.644-24.123h-9.483zm70.016 3.095h-.171l-14.321 40.091h-9.116v-66.547h9.482v40.017h.196l14.492-40.017h8.919v66.547h-9.482v-40.091zm57.942 40.091-7.625-26.457h-.195l-7.625 26.457h-10.044l13.025-38.42v-28.127h9.483v28.127l13.025 38.42h-10.044zm-376.249-85.338h4.57v-12.823h3.103v12.823h4.546v2.629h-12.219v-2.629zm38.417 2.629-5.988-15.452h3.299l1.271 3.513h6.158l1.32-3.513h3.372l-6.134 15.452h-3.299zm-.489-9.335 2.102 5.724 2.101-5.724h-4.203zm38.466-.419h3.569v-1.99a5.913 5.913 0 0 0-3.666-1.302 3.896 3.896 0 0 0-3.275 1.474 6.47 6.47 0 0 0-1.149 4.028c0 3.439 1.491 5.159 4.448 5.159.779.078 1.559-.128 2.2-.578s1.1-1.117 1.295-1.878l3.055.589c-.66 3.022-2.834 4.544-6.55 4.544a7.772 7.772 0 0 1-5.4-1.99 7.574 7.574 0 0 1-2.224-5.944 8.422 8.422 0 0 1 1.979-5.798 7.49 7.49 0 0 1 5.865-2.26 9.278 9.278 0 0 1 6.55 2.457v6.092h-6.697v-2.603zm38.783 9.754h-3.128v-15.452h10.825v2.629h-7.697v12.823zm32.796 0h-3.128v-15.452h3.128v15.452zm32.063-10.318-6.329 10.318h-3.03v-15.452h2.908v10.096l6.208-10.096h3.104v15.452h-2.859v-10.318zm28.984 1.671h7.698v2.629h-7.698v3.39h8.285v2.629h-11.413v-15.452h11.731v2.629h-8.603v4.176zm70.283 2.554h-6.085v6.093h-3.103v-15.452h3.103v6.756h6.085v-6.756h3.104v15.452h-3.104v-6.093zm29.155-2.554h7.723v2.629h-7.723v3.39h8.309v2.629h-11.413v-15.452h11.705v2.629h-8.602v4.176zm39.541-.001c2.688.417 4.056 1.842 4.056 4.299a3.696 3.696 0 0 1-1.516 3.439 8.736 8.736 0 0 1-4.521.909h-6.549v-15.452h3.104v6.461h.611a4.153 4.153 0 0 0 1.93-.344c.454-.28.832-.668 1.1-1.13l3.372-4.913h3.714l-1.882 3.022a10.777 10.777 0 0 1-3.421 3.71zm-3.129 2.137h-2.296v3.882h2.443a8.119 8.119 0 0 0 3.153-.368 2.026 2.026 0 0 0 .679-1.608 2.025 2.025 0 0 0-.826-1.536 8.808 8.808 0 0 0-3.153-.369zm32.944-2.136h7.697v2.629h-7.697v3.39h8.309v2.629h-11.437v-15.452h11.73v2.629h-8.602v4.176z"/>
      <glyph unicode="" glyph-name="client-2" d="m367.094 670.189 67.698-64.088-125.66.073v-310.94h328.453v118.887l67.623-64.017v320.085H367.095zm267.519-248.545-191.95 181.715h191.95V421.644zm-59.597-80.927h-213.91v209.124h15.12V354.877h198.789v-14.16zm-163.398-86.882-7.901-16.274-7.901 16.274h-6.627l11.534-21.698v-12.642h5.99v12.642l11.509 21.698h-6.604zm9.929-34.34 2.783 7.995h13.302l2.806-7.995h6.226l-12.995 34.34h-5.354l-12.972-34.34h6.203zm9.434 27.052 4.976-14.245h-9.953l4.977 14.245zm31.462-13.42a7.796 7.796 0 0 1-1.297-4.363c0-2.893 1.014-5.244 3.043-7.052 2.044-1.793 4.764-2.688 8.16-2.688s6.321.92 8.774 2.759l1.934-2.288h6.651l-5.048 5.967c1.981 2.704 2.972 6.171 2.972 10.4h-4.976c0-2.311-.479-4.41-1.438-6.297l-6.628 7.83 2.335 1.698c1.651 1.195 2.838 2.39 3.562 3.585a7.576 7.576 0 0 1 1.085 3.962c0 2.171-.802 3.986-2.405 5.448-1.588 1.478-3.632 2.217-6.132 2.217-2.768 0-4.968-.786-6.604-2.358-1.636-1.557-2.453-3.68-2.453-6.368 0-1.1.26-2.24.779-3.42.534-1.18 1.47-2.61 2.806-4.293-2.547-1.824-4.253-3.403-5.118-4.74zm15.495-7.594c-1.682-1.29-3.49-1.934-5.424-1.934-1.714 0-3.082.496-4.104 1.486s-1.533 2.28-1.533 3.868c0 1.839.944 3.475 2.83 4.906l.731.519 7.499-8.844zm-6.155 15.212c-1.619 1.997-2.43 3.655-2.43 4.976 0 1.149.33 2.099.991 2.854s1.549 1.132 2.665 1.132c1.038 0 1.894-.322 2.571-.967.676-.629 1.014-1.391 1.014-2.288 0-1.352-.488-2.46-1.463-3.325l-.731-.59-2.618-1.792zm55.896-18.656c2.359 2.061 3.712 4.922 4.057 8.585h-5.944c-.314-2.453-1.061-4.206-2.24-5.259s-2.941-1.58-5.283-1.58c-2.563 0-4.512.975-5.848 2.924-1.322 1.95-1.981 4.78-1.981 8.491v3.042c.031 3.663.739 6.439 2.122 8.325 1.4 1.902 3.397 2.854 5.99 2.854 2.233 0 3.923-.55 5.071-1.651 1.164-1.085 1.887-2.861 2.17-5.33h5.944c-.378 3.758-1.722 6.667-4.033 8.726s-5.362 3.089-9.151 3.089c-2.814 0-5.299-.668-7.453-2.005-2.138-1.337-3.781-3.239-4.929-5.707s-1.721-5.323-1.721-8.562v-3.207c.046-3.16.637-5.935 1.769-8.325s2.736-4.238 4.811-5.542c2.091-1.29 4.505-1.934 7.24-1.934 3.915 0 7.052 1.022 9.41 3.065zm35.071 4.812c1.164 2.547 1.746 5.504 1.746 8.868v1.91c-.015 3.349-.613 6.281-1.793 8.798-1.179 2.531-2.854 4.465-5.023 5.801-2.154 1.352-4.63 2.029-7.429 2.029s-5.283-.684-7.453-2.052c-2.154-1.352-3.828-3.31-5.023-5.873-1.18-2.563-1.769-5.519-1.769-8.868v-1.934c.015-3.285.612-6.187 1.792-8.702 1.195-2.517 2.878-4.458 5.048-5.826 2.185-1.351 4.67-2.028 7.453-2.028 2.814 0 5.299.676 7.452 2.028 2.17 1.368 3.837 3.317 5 5.849zm-6.391 19.411c1.446-2.029 2.17-4.945 2.17-8.75v-1.792c0-3.868-.716-6.809-2.147-8.821-1.414-2.013-3.443-3.019-6.084-3.019-2.61 0-4.654 1.03-6.132 3.089-1.463 2.06-2.194 4.976-2.194 8.75v1.98c.032 3.695.771 6.549 2.217 8.562 1.463 2.028 3.483 3.042 6.062 3.042 2.641 0 4.678-1.014 6.108-3.042z"/>
      <glyph unicode="" d="M1024 448.002c0-141.386-57.307-269.386-149.96-362.04C781.384-6.691 653.384-63.998 512-63.998S242.616-6.691 149.961 85.962C57.307 178.615 0 306.615 0 448.002 0 589.386 57.307 717.386 149.961 810.04S370.616 960.001 512 960.001s269.384-57.307 362.04-149.961C966.693 717.386 1024 589.386 1024 448.002z"/>
      <glyph unicode="" d="M744.613 215.273v.019h.116v170.705c0 83.51-17.978 147.84-115.607 147.84-46.934 0-78.429-25.756-91.287-50.171h-1.359v42.375h-92.567V215.292h96.389v153.872c0 40.513 7.68 79.688 57.851 79.688 49.436 0 50.174-46.234 50.174-82.288V215.273h96.291z"/>
      <glyph unicode="" d="M286.953 526.022h96.503V215.273h-96.503v310.749z"/>
      <glyph unicode="" d="M335.167 680.727c-30.857 0-55.894-25.037-55.894-55.894 0-30.855 25.037-56.415 55.894-56.415 30.855 0 55.892 25.56 55.892 56.415-.019 30.857-25.055 55.894-55.892 55.894z"/>
      <glyph unicode="" d="M1024 448.002c0-141.386-57.307-269.386-149.96-362.04C781.384-6.691 653.384-63.998 512-63.998S242.616-6.691 149.961 85.962C57.307 178.615 0 306.615 0 448.002 0 589.386 57.307 717.386 149.961 810.04S370.616 960.001 512 960.001s269.384-57.307 362.04-149.961C966.693 717.386 1024 589.386 1024 448.002z"/>
      <glyph unicode="" d="M589.519 603.443h42.491v74.007c-7.331 1.008-32.542 3.277-61.905 3.277-61.265 0-103.233-38.535-103.233-109.363v-65.182h-67.607v-82.735h67.607V215.272h82.89v208.156h64.873l10.298 82.735h-75.192v56.997c.021 23.913 6.458 40.283 39.778 40.283z"/>
      <glyph unicode="" d="M1024 448.002c0-141.386-57.307-269.386-149.96-362.04C781.384-6.691 653.384-63.998 512-63.998S242.616-6.691 149.961 85.962C57.307 178.615 0 306.615 0 448.002 0 589.386 57.307 717.386 149.961 810.04S370.616 960.001 512 960.001s269.384-57.307 362.04-149.961C966.693 717.386 1024 589.386 1024 448.002z"/>
      <glyph unicode="" d="M744.727 592.319c-17.308-7.592-35.754-12.623-54.982-15.067 19.782 11.809 34.881 30.371 41.977 52.741-18.441-10.996-38.805-18.765-60.509-23.098-17.513 18.646-42.473 30.196-69.702 30.196-52.827 0-95.36-42.88-95.36-95.448 0-7.561.64-14.834 2.213-21.758-79.332 3.868-149.527 41.889-196.685 99.81-8.234-14.285-13.061-30.634-13.061-48.233 0-33.047 17.017-62.341 42.384-79.302-15.332.291-30.371 4.741-43.113 11.753v-1.047c0-46.371 33.075-84.887 76.451-93.759-7.768-2.125-16.233-3.142-25.018-3.142-6.109 0-12.276.347-18.067 1.629 12.365-37.79 47.448-65.573 89.165-66.474-32.465-25.398-73.686-40.697-118.312-40.697-7.827 0-15.332.347-22.838 1.308 42.268-27.259 92.365-42.822 146.385-42.822 175.593 0 271.593 145.455 271.593 271.535 0 4.219-.144 8.29-.349 12.335 18.939 13.44 34.851 30.224 47.825 49.541z"/>
      <glyph unicode="" d="M1024 448.002c0-141.386-57.307-269.386-149.96-362.04C781.384-6.691 653.384-63.998 512-63.998S242.616-6.691 149.961 85.962C57.307 178.615 0 306.615 0 448.002 0 589.386 57.307 717.386 149.961 810.04S370.616 960.001 512 960.001s269.384-57.307 362.04-149.961C966.693 717.386 1024 589.386 1024 448.002z"/>
      <glyph unicode="" d="M744.271 543.881c-1.089 24.732-5.09 41.735-10.817 56.469-5.911 15.637-15.004 29.64-26.917 41.279-11.639 11.82-25.733 21.006-41.19 26.824-14.818 5.727-31.732 9.728-56.462 10.817-24.916 1.182-32.826 1.457-96.021 1.457s-71.105-.275-95.928-1.364c-24.732-1.091-41.735-5.094-56.464-10.819-15.642-5.909-29.642-15.002-41.281-26.915-11.82-11.639-21.004-25.733-26.824-41.19-5.73-14.822-9.728-31.732-10.819-56.464-1.182-24.916-1.455-32.826-1.455-96.021 0-63.192.272-71.103 1.364-95.928 1.089-24.73 5.092-41.733 10.822-56.467 5.909-15.637 15.092-29.64 26.913-41.279 11.639-11.82 25.733-21.006 41.19-26.824 14.82-5.727 31.732-9.728 56.467-10.817 24.82-1.094 32.733-1.364 95.928-1.364s71.103.27 95.928 1.364c24.732 1.089 41.733 5.09 56.462 10.817a119.067 119.067 0 0 1 68.108 68.103c5.725 14.822 9.728 31.737 10.819 56.467 1.089 24.825 1.364 32.735 1.364 95.928 0 63.195-.093 71.105-1.185 95.928zm-41.914-190.035c-1.001-22.733-4.82-35.007-8.001-43.19a77.216 77.216 0 0 0-44.193-44.193c-8.183-3.184-20.547-7-43.19-7.999-24.55-1.094-31.914-1.364-94.017-1.364s-69.56.27-94.022 1.364c-22.73.998-35.007 4.815-43.19 7.999-10.091 3.728-19.277 9.64-26.731 17.368a72.335 72.335 0 0 0-17.368 26.731c-3.181 8.183-7 20.55-7.999 43.19-1.094 24.55-1.364 31.916-1.364 94.022 0 62.103.27 69.558 1.364 94.017.998 22.73 4.817 35.007 7.999 43.19 3.728 10.093 9.64 19.274 17.462 26.733a72.232 72.232 0 0 0 26.731 17.366c8.183 3.181 20.55 7 43.19 8.001 24.55 1.091 31.916 1.364 94.017 1.364 62.196 0 69.558-.272 94.019-1.364 22.733-1.001 35.007-4.82 43.192-8.001 10.089-3.726 19.274-9.637 26.731-17.366a72.376 72.376 0 0 0 17.368-26.733c3.181-8.183 7-20.547 8.001-43.19 1.091-24.55 1.364-31.914 1.364-94.017 0-62.106-.272-69.378-1.364-93.929z"/>
      <glyph unicode="" d="M512.863 567.524c-66.011 0-119.568-53.555-119.568-119.568 0-66.015 53.558-119.568 119.568-119.568 66.015 0 119.571 53.553 119.571 119.568 0 66.013-53.555 119.568-119.571 119.568zm0-197.129c-42.824 0-77.561 34.732-77.561 77.561 0 42.826 34.737 77.561 77.561 77.561 42.829 0 77.561-34.735 77.561-77.561 0-42.829-34.732-77.561-77.561-77.561z"/>
      <glyph unicode="" d="M665.076 572.251c0-15.416-12.5-27.913-27.918-27.913-15.416 0-27.913 12.497-27.913 27.913 0 15.418 12.497 27.913 27.913 27.913 15.418 0 27.918-12.495 27.918-27.913z"/>
      <glyph unicode="" d="M1023.171 815.23a17.088 17.088 0 0 1-13.773 11.606l-61.133 8.892-27.358 55.399c-5.734 11.674-24.867 11.674-30.6 0l-27.358-55.399-61.136-8.894a17.106 17.106 0 0 1-13.79-11.606c-1.995-6.177-.342-12.97 4.318-17.494l44.254-43.129-10.443-60.894a17.106 17.106 0 0 1 6.776-16.693 16.985 16.985 0 0 1 17.987-1.296l54.683 28.758 54.683-28.758a17.085 17.085 0 0 1 7.954-1.962c3.533 0 7.067 1.093 10.037 3.261a17.038 17.038 0 0 1 6.776 16.691l-10.443 60.896 44.254 43.128a17.124 17.124 0 0 1 4.313 17.495zm-78.815-42.463a17.068 17.068 0 0 1-4.898-15.104l6.11-35.653-32.016 16.829a17.033 17.033 0 0 1-7.955 1.962c-2.73 0-5.443-.648-7.954-1.962l-32.019-16.829 6.11 35.653c.957 5.53-.888 11.178-4.898 15.104l-25.925 25.259 35.806 5.205a17.065 17.065 0 0 1 12.853 9.337l16.008 32.426 16.008-32.426a17.068 17.068 0 0 1 12.853-9.337l35.806-5.205-25.891-25.259z"/>
      <glyph unicode="" d="M836.272 303.29h-34.134v-34.134h34.134v34.134z"/>
      <glyph unicode="" d="M836.272 235.021h-34.134v-34.134h34.134v34.134z"/>
      <glyph unicode="" d="M870.406 269.155h-34.134v-34.134h34.134v34.134z"/>
      <glyph unicode="" d="M802.139 269.155h-34.134v-34.134h34.134v34.134z"/>
      <glyph unicode="" d="M716.803 115.553h-34.134V81.419h34.134v34.134z"/>
      <glyph unicode="" d="M716.803 47.285h-34.134V13.151h34.134v34.134z"/>
      <glyph unicode="" d="M750.939 81.418h-34.136V47.284h34.136v34.134z"/>
      <glyph unicode="" d="M682.669 81.418h-34.134V47.284h34.134v34.134z"/>
      <glyph unicode="" d="M512 183.82h-34.134v-34.134H512v34.134z"/>
      <glyph unicode="" d="M512 115.553h-34.134V81.419H512v34.134z"/>
      <glyph unicode="" d="M546.134 149.687H512v-34.134h34.134v34.134z"/>
      <glyph unicode="" d="M477.866 149.687h-34.134v-34.134h34.134v34.134z"/>
      <glyph unicode="" d="M187.728 764.097h-34.134v-34.134h34.134v34.134z"/>
      <glyph unicode="" d="M187.728 695.827h-34.134v-34.134h34.134v34.134z"/>
      <glyph unicode="" d="M221.861 729.963h-34.134v-34.134h34.134v34.134z"/>
      <glyph unicode="" d="M153.594 729.963H119.46v-34.134h34.134v34.134z"/>
      <glyph unicode="" d="M790.872 506.898c-9.197 12.408-22.698 20.394-38.024 22.546-15.394 2.184-30.584-1.859-42.872-11.264l-40.075-30.72-60.725-45.347-43.453 17.307c77.483 34.765 131.638 112.266 131.638 202.243 0 122.336-99.928 221.869-222.758 221.869s-222.755-99.533-222.755-221.869c0-44.341 13.259-85.573 35.84-120.27l-88.441.768h-.154c-.274 0-.494-.136-.75-.154a16.698 16.698 0 0 1-4.966-.99c-.41-.154-.835-.24-1.227-.426-.205-.086-.41-.102-.614-.205l-103.459-51.08c-.018 0-.034 0-.034-.016l-60.589-29.137a13.298 13.298 0 0 1-2.014-1.125C1.29 442.951-6.936 411.377 6.292 385.572c7.048-13.722 19.046-23.826 33.793-28.45a57.833 57.833 0 0 1 17.254-2.646c9.268 0 18.45 2.27 26.862 6.758l44.409 23.619 72.448 37.411 43.419.256L70.343 249.221c-.016-.018-.034-.018-.052-.034L27.452 206.52c-10.12-10.07-15.684-23.432-15.684-37.685 0-14.234 5.564-27.63 15.684-37.718 10.394-10.342 24.064-15.53 37.735-15.53 13.688 0 27.34 5.187 37.769 15.53L145.009 173l55.706 41.592 28.827-28.706-56.373-56.133c-.016-.019-.035-.019-.053-.035l-42.838-42.666c-10.12-10.07-15.684-23.432-15.684-37.685 0-14.235 5.564-27.63 15.684-37.718C140.672 1.307 154.36-3.882 168.03-3.882s27.358 5.189 37.77 15.531l111.411 110.933c.018.019.018.035.034.053l32.309 32-.12.12c.205.205.494.275.701.494l165.31 181.062 111.072-15.803c.802-.12 1.603-.171 2.406-.171 2.066 0 4.062.494 5.99 1.229.563.203 1.058.478 1.587.75.614.307 1.262.477 1.845.869l102.827 68.267c.376.256.581.667.938.939.41.323.923.459 1.296.819l40.686 38.11c21.17 19.836 24.089 52.331 6.782 75.576zM68.173 391.355c-5.546-2.97-11.844-3.565-17.868-1.656-5.974 1.861-10.82 5.941-13.654 11.453-5.154 10.037-2.168 22.256 6.86 28.861l42.037 20.224 14.37-42-31.744-16.881zm111.908 58.488-49.545-25.601-14.044 41.065 64.856 32.018-1.267-47.481zm483.181 211.853c0-29.389-7.014-57.107-19.166-81.902l-133.805 60.774c-1.4 18.346-10.922 34.406-25.224 44.408l46.849 155.531c76.085-24.202 131.346-95.184 131.346-178.811zm-377.246 0c0 103.512 84.618 187.737 188.624 187.737 8.09 0 16.008-.682 23.842-1.672l-45.824-152.118c-.614.018-1.195.187-1.827.187-33.042 0-59.923-26.794-59.923-59.734 0-32.939 26.881-59.736 59.923-59.736 22.221 0 41.421 12.27 51.781 30.227l123.598-56.15c-34.39-46.285-89.432-76.478-151.572-76.478-104.003 0-188.621 84.225-188.621 187.737zm190.603-25.6c0-14.115-11.573-25.6-25.789-25.6s-25.787 11.485-25.787 25.6c0 14.114 11.571 25.6 25.787 25.6s25.789-11.486 25.789-25.6zM78.875 155.32c-7.56-7.493-19.798-7.477-27.34-.019-3.636 3.637-5.632 8.43-5.632 13.534 0 5.086 1.996 9.883 5.632 13.483l30.786 30.67 27.239-27.12-30.685-30.549zM181.719 35.85c-7.56-7.493-19.814-7.51-27.358-.018-3.637 3.635-5.632 8.429-5.632 13.534 0 5.085 1.995 9.882 5.632 13.482l30.806 30.686 27.256-27.12-30.704-30.565zm111.414 111.003c-.019-.016-.035-.016-.053-.034l-56.475-56.32-27.256 27.12 56.422 56.166v.016c.019.018.034.018.053.034 1.28 1.28 2.082 2.816 2.867 4.334.222.445.648.821.837 1.28.53 1.314.614 2.73.819 4.114.102.787.445 1.518.445 2.323 0 1.144-.41 2.251-.648 3.379-.205 1.024-.205 2.067-.598 3.054-.648 1.605-1.758 3.021-2.918 4.405-.323.376-.443.854-.802 1.211h-.018c-.018.016-.018.053-.034.069l-51.424 51.2c-.546.547-1.245.768-1.859 1.229-.904.699-1.774 1.347-2.782 1.843-.971.478-1.962.768-2.986 1.043-1.093.307-2.15.546-3.294.632-1.042.067-2.014-.035-3.054-.155-1.144-.136-2.218-.29-3.328-.648-1.075-.341-2.03-.869-3.019-1.434-.632-.358-1.349-.478-1.947-.922l-56.746-42.361-28.826 28.707 76.768 76.357 139.539-137.236-29.681-29.406zm218.201 224.534c-.494.069-.957-.12-1.45-.086-1.246.069-2.44-.018-3.686-.221-.973-.171-1.894-.358-2.816-.683-1.093-.376-2.082-.888-3.091-1.501-.955-.581-1.826-1.195-2.661-1.963-.411-.357-.904-.53-1.28-.938L346.005 201.333 207.508 337.545l90.659 90.181c6.674 6.656 6.709 17.461.051 24.15-3.362 3.362-7.781 5.018-12.202 5v.016l-70.998-.426.888 51.438 99.329-.854c40.482-41.405 96.939-67.227 159.405-67.227 13.994 0 27.648 1.45 40.942 3.926 1.28-1.024 2.541-2.066 4.147-2.714l77.11-30.721 10.579-52.598-96.085 13.67zm129.316-5.701-10.018 49.854 46.285 34.56 30.294-40.208-66.561-44.206zm120.116 90.592-26.813-25.122-29.798 39.56 26.606 20.395c4.966 3.821 11.23 5.376 17.374 4.573 6.178-.869 11.64-4.096 15.36-9.096 6.931-9.336 5.752-22.358-2.73-30.31z"/>
      <glyph unicode="" d="m435.266 366.591-68.574 68.267c-6.638 6.638-17.427 6.638-24.083 0l-68.557-68.267c-3.208-3.226-5.018-7.56-5.018-12.099 0-4.541 1.792-8.893 5.018-12.101l68.557-68.267c3.328-3.31 7.699-4.966 12.051-4.966s8.72 1.656 12.032 4.966l68.574 68.267a17.135 17.135 0 0 1 5.035 12.101c0 4.539-1.811 8.891-5.035 12.099zm-80.607-56.287-44.374 44.187 44.374 44.186 44.39-44.186-44.39-44.187z"/>
      <glyph unicode="" d="m549.256 797.735-8.243-33.144c2.27-.565 55.605-14.456 55.605-68.763h34.134c-.001 64.549-53.301 94.893-81.496 101.907z"/>
      <glyph unicode="" d="M630.752 661.696h-34.134v-34.134h34.134v34.134z"/>
      <glyph unicode="" d="M477.617 481.132h34.115v-153.52h-34.115v153.52z"/>
      <glyph unicode="" d="M614.078 412.902h34.115v-85.289h-34.115v85.289z"/>
      <glyph unicode="" d="M341.154 361.728h34.115v-34.115h-34.115v34.115z"/>
      <glyph unicode="" d="M238.809 378.786h34.115v-51.172h-34.115v51.172z"/>
      <glyph unicode="" d="M51.173 54.689h818.772c28.259 0 51.172 22.913 51.172 51.174v68.231c0 28.259-22.913 51.174-51.172 51.174h-17.058v425.384l96.891 91.786c22.489-11.086 49.708-4.355 64.424 15.958 14.727 20.306 12.661 48.267-4.88 66.191s-45.444 20.598-66.074 6.33c-20.622-14.276-27.952-41.337-17.357-64.067l-73.004-69.205v39.354c0 28.261-22.913 51.174-51.174 51.174H119.404c-28.26 0-51.173-22.913-51.173-51.174V225.268H51.173C22.913 225.268 0 202.354 0 174.094v-68.231c0-28.261 22.913-51.174 51.173-51.174zM972.291 805.23c9.419 0 17.057-7.638 17.057-17.058s-7.638-17.057-17.057-17.057c-9.421 0-17.058 7.638-17.058 17.057 0 9.421 7.638 17.058 17.058 17.058zm-869.945-68.232c0 9.421 7.638 17.058 17.058 17.058h682.309c9.421 0 17.058-7.638 17.058-17.058V665.36l-34.115-32.415v69.938c0 9.421-7.638 17.058-17.058 17.058H153.52c-9.42 0-17.058-7.638-17.058-17.058V276.44c0-9.419 7.638-17.057 17.058-17.057h614.078c9.421 0 17.058 7.638 17.058 17.057v309.58l34.115 32.325V225.268H102.346v511.731zm153.519-221.75c-23.079.067-43.343-15.309-49.481-37.556-6.14-22.246 3.365-45.842 23.213-57.619 19.839-11.777 45.117-8.821 61.7 7.229l59.294-29.752c6.889-3.448 15.242-1.831 20.364 3.923l126.043 141.801 123.901-92.843c6.647-4.981 15.925-4.447 21.956 1.258L750.54 553.694V293.497H170.577v392.328H750.54v-85.131l-120.687-114.29-124.943 93.668c-7.096 5.313-17.083 4.314-22.98-2.308L354.155 433.999l-47.767 23.887c.35 2.049.566 4.115.65 6.188 0 28.261-22.913 51.174-51.174 51.174zm17.059-51.174c0-9.419-7.638-17.057-17.058-17.057-9.419 0-17.057 7.638-17.057 17.057 0 9.421 7.638 17.058 17.057 17.058 9.421 0 17.058-7.638 17.058-17.058zM375.27 191.15h170.578v-17.057c0-9.421-7.638-17.058-17.058-17.058H392.329c-9.421 0-17.058 7.638-17.058 17.058v17.057zM34.115 174.093c0 9.419 7.638 17.057 17.058 17.057h289.981v-17.057c0-28.261 22.913-51.174 51.174-51.174h136.461c28.261 0 51.174 22.913 51.174 51.174v17.057h289.982c9.419 0 17.057-7.638 17.057-17.057v-68.231c0-9.421-7.638-17.058-17.057-17.058H51.173c-9.42 0-17.058 7.638-17.058 17.058v68.231z"/>
      <glyph unicode="" d="M1001.492 470.36C1001.436 740.836 782.125 960.055 511.64 960 241.164 959.945 21.945 740.626 22 470.149 22.047 257.094 159.82 68.516 362.781 3.711a19.645 19.645 0 0 1 5.977-.914 21.611 21.611 0 0 1 10.96 3 20.392 20.392 0 0 1 9.062 11.406l123.68 392c33.812.171 61.079 27.726 60.899 61.531-.173 33.812-27.718 61.079-61.531 60.906a60.372 60.372 0 0 1-26.242-6.125L322.195 688.929c-8.11 7.828-21.024 7.601-28.852-.5-7.641-7.914-7.641-20.445 0-28.359l163.305-163.492c-12.531-25.578-5.367-56.453 17.164-73.89L355.969 49.156C123.078 134.945 3.828 393.281 89.618 626.171s344.124 352.141 577.016 266.352 352.14-344.133 266.351-577.016A449.406 449.406 0 0 0 694.197 60.358l-12.736 59.977c-2.327 11.023-13.163 18.071-24.187 15.734a20.507 20.507 0 0 1-9.359-4.743L525.134 21.708c-8.423-7.491-9.172-20.389-1.672-28.812a20.468 20.468 0 0 1 9.062-5.882l156.757-50.031c10.727-3.445 22.219 2.453 25.664 13.188 1.094 3.391 1.274 7 .54 10.484l-12.516 58.851c181.258 76.415 298.945 254.149 298.524 450.853zM511.75 490.765c11.265 0 20.407-9.14 20.407-20.405 0-11.274-9.141-20.407-20.407-20.407-11.273 0-20.405 9.133-20.405 20.407 0 11.265 9.133 20.405 20.405 20.405zm67.211-475.648 69.891 62.344 19.289-90.89-89.18 28.546z"/>
      <glyph unicode="" d="M491.343 858.079v-40.812c0-11.273 9.133-20.407 20.405-20.407 11.267 0 20.407 9.134 20.407 20.407v40.812c0 11.266-9.14 20.406-20.407 20.406-11.273 0-20.405-9.141-20.405-20.406z"/>
      <glyph unicode="" d="M124.031 490.767c-11.274 0-20.406-9.141-20.406-20.407 0-11.273 9.133-20.407 20.406-20.407h40.812c11.274 0 20.407 9.134 20.407 20.407 0 11.265-9.133 20.407-20.407 20.407h-40.812z"/>
      <glyph unicode="" d="M899.461 449.953c11.273 0 20.405 9.134 20.405 20.407 0 11.265-9.133 20.407-20.405 20.407h-40.812c-11.267 0-20.407-9.141-20.407-20.407 0-11.273 9.14-20.407 20.407-20.407h40.812z"/>
      <glyph unicode="" d="M984.741 252.877 714.559 525.039l29.986 147.696a68.09 68.09 0 0 1 24.269-4.659h.205c38.153-.451 69.446 30.111 69.9 68.264.452 38.153-30.113 69.446-68.266 69.898-38.153.451-69.446-30.111-69.898-68.264a69.037 69.037 0 0 1 3.992-23.972l-158.72-19.371-258.902 260.25a17.06 17.06 0 0 1-12.048 5.12 17.064 17.064 0 0 1-11.947-4.966l-48.402-48.128c-6.662-6.664-6.662-17.468 0-24.132l26.045-26.419c-100.899-185.533-68.127-415.289 80.622-565.213a16.189 16.189 0 0 1 4.677-3.123 99.105 99.105 0 0 1-1.674-17.51V72.536h-204.8C72.494 72.48 34.32 34.307 34.265-12.797V-46.93c0-9.425 7.642-17.067 17.067-17.067h785.066c9.425 0 17.067 7.642 17.067 17.067v34.133c-.056 47.104-38.229 85.277-85.333 85.333h-204.8v87.741a480.95 480.95 0 0 1 97.552-10.24 475.183 475.183 0 0 1 225.28 57.07l26.181-26.334a17.07 17.07 0 0 1 12.05-5.12 17.07 17.07 0 0 1 11.946 4.966l48.402 48.128c6.662 6.665 6.662 17.468 0 24.133zM744.954 760.542c13.366 13.294 34.978 13.234 48.271-.13 13.294-13.366 13.234-34.978-.13-48.271a34.14 34.14 0 0 0-24.079-9.933h-.102c-18.85.098-34.055 15.458-33.957 34.31a34.146 34.146 0 0 0 10.063 24.025h-.066zM704.78 648.397l-19.149-94.259-37.614 37.837 56.763 56.422zm-19.388 28.859-61.44-61.082-47.531 47.787 108.971 13.294zM768.132 38.4c28.277 0 51.2-22.923 51.2-51.2v-17.067H68.398V-12.8c0 28.277 22.923 51.2 51.2 51.2h648.534zm-238.935 68.267V72.533H358.531v34.134h170.666zM358.532 140.8v129.707c0 41.403 38.28 75.093 85.333 75.093s85.333-33.69 85.333-75.093V140.8H358.532zm204.8 54.272v75.435c0 60.227-53.59 109.226-119.467 109.226a121.597 121.597 0 0 1-104.994-57.155c-129.848 136.761-159.087 340.645-72.916 508.388l595.259-598.671a442.262 442.262 0 0 0-297.882-37.222zm361.249 21.88L250.755 894.737l24.149 24.064 253.918-255.352c.118 0 .187-.222.307-.307l419.669-422.126-24.218-24.064z"/>
      <glyph unicode="" d="M444.018 311.467h-.154c-28.277.042-51.234-22.845-51.278-51.124-.042-28.277 22.847-51.234 51.124-51.276h.154c28.277-.042 51.234 22.845 51.276 51.122.044 28.278-22.845 51.235-51.122 51.278zm11.947-63.301a17.07 17.07 0 0 0-12.101-4.966c-9.425.05-17.026 7.73-16.978 17.155a17.079 17.079 0 0 0 5.031 12.012 17.061 17.061 0 0 0 11.947 4.966c9.425-.048 17.026-7.728 16.976-17.153a17.072 17.072 0 0 0-5.029-12.013h.154z"/>
      <glyph unicode="" glyph-name="envelope" d="M928 832H96.001C43.063 832 0 788.937 0 735.999V160c0-52.934 43.063-96 96.001-96H928c52.934 0 96 43.066 96 96v575.999c0 52.938-43.066 96.001-96 96.001zm0-64c4.346 0 8.48-.902 12.262-2.477L512 394.343 83.733 765.523C87.515 767.096 91.65 768 95.999 768H928zm0-640H96.001C78.345 128 64 142.342 64 160v537.907l427.031-370.093c6.032-5.217 13.5-7.812 20.969-7.812s14.937 2.593 20.969 7.812L960 697.907V160c0-17.658-14.342-32-32-32z"/>
      <glyph unicode="" glyph-name="smartphone" d="M736 960H288c-52.938 0-96-43.062-96-96V32c0-52.941 43.062-96 96-96h448c52.938 0 96 43.059 96 96v832c0 52.938-43.062 96-96 96zm-448-64h448c17.656 0 32-14.344 32-32V192H256v672c0 17.656 14.344 32 32 32zM736 0H288c-17.656 0-32 14.342-32 32v96h512V32c0-17.658-14.344-32-32-32zM342.627 80.71c12.497-11.674 12.497-30.592 0-42.259-12.497-11.674-32.757-11.674-45.254 0-12.497 11.667-12.497 30.586 0 42.259 12.497 11.667 32.757 11.667 45.254 0z"/>
    </font>
</defs>
</svg>
